# AST/ASF file generated using VICON BodyLanguage
# -----------------------------------------------
:version 1.10
:name VICON
:units
  mass 1.0
  length 0.45
  angle deg
:documentation
   .ast/.asf automatically generated from VICON data using
   VICON BodyBuilder and BodyLanguage model FoxedUp or BRILLIANT.MOD
:root
   order TX TY TZ RX RY RZ
   axis XYZ
   position 0 0 0  
   orientation 0 0 0 
:bonedata
  begin
     id 1 
     name lhipjoint
     direction 0.702568 -0.596508 0.388042 
     length 2.56661 
     axis 0 0 0  XYZ
  end
  begin
     id 2 
     name lfemur
     direction 0.34202 -0.939693 0  
     length 6.58374  
     axis 0 0 20  XYZ
    dof rx ry rz
    limits (-160.0 20.0)
           (-70.0 70.0)
           (-60.0 70.0)
  end
  begin
     id 3 
     name ltibia
     direction 0.34202 -0.939693 0   
     length 6.62538   
     axis 0 0 20   XYZ
    dof rx
    limits (-10.0 170.0)
  end
  begin
     id 4 
     name lfoot
     direction 0.10455 -0.287249 0.952133   
     length 2.26699   
     axis -90 7.62852e-016 20   XYZ
    dof rx rz
    limits (-45.0 90.0)
           (-70.0 20.0)
  end
  begin
     id 5 
     name ltoes
     direction 1.53572e-011 -4.22322e-011 1   
     length 1.12949   
     axis -90 7.62852e-016 20   XYZ
    dof rx
    limits (-90.0 20.0)
  end
  begin
     id 6 
     name rhipjoint
     direction -0.728055 -0.574632 0.373811   
     length 2.66432  
     axis 0 0 0  XYZ 
  end
  begin
     id 7 
     name rfemur
     direction -0.34202 -0.939693 0   
     length 6.66732   
     axis 0 0 -20   XYZ
    dof rx ry rz
    limits (-160.0 20.0)
           (-70.0 70.0)
           (-70.0 60.0)
  end
  begin
     id 8 
     name rtibia
     direction -0.34202 -0.939693 0   
     length 6.59288   
     axis 0 0 -20   XYZ
    dof rx
    limits (-10.0 170.0)
 end
 begin
     id 9 
     name rfoot
     direction -0.119193 -0.327479 0.93731   
     length 2.38061  
     axis -90 -7.62852e-016 -20   XYZ
    dof rx rz
    limits (-45.0 90.0)
           (-20.0 70.0)
  end
  begin
     id 10 
     name rtoes
     direction -1.53547e-011 -4.21827e-011 1   
     length 1.17899   
     axis -90 -7.62852e-016 -20   XYZ
    dof rx
    limits (-90.0 20.0)
  end
  begin
     id 11 
     name lowerback
     direction -0.000416114 0.999912 -0.0132284   
     length 2.12109   
     axis 0 0 0   XYZ
    dof rx ry rz
    limits (-20.0 45.0)
           (-30.0 30.0)
           (-30.0 30.0)
  end
  begin
     id 12 
     name upperback
     direction -0.00136371 0.99809 0.0617608   
     length 2.10067   
     axis 0 0 0   XYZ
    dof rx ry rz
    limits (-20.0 45.0)
           (-30.0 30.0)
           (-30.0 30.0)
  end
  begin
     id 13 
     name thorax
     direction -3.43026e-005 0.997776 0.0666515   
     length 2.10618   
     axis 0 0 0   XYZ
    dof rx ry rz
    limits (-20.0 45.0)
           (-30.0 30.0)
           (-30.0 30.0)
  end
  begin
     id 14 
     name lowerneck
     direction 0.0398646 0.998418 0.0396592   
     length 1.83817   
     axis 0 0 0   XYZ
    dof rx ry rz
    limits (-20.0 45.0)
           (-30.0 30.0)
           (-30.0 30.0)
  end
  begin
     id 15 
     name upperneck
     direction -0.0367268 0.961527 -0.272244   
     length 1.81975   
     axis 0 0 0   XYZ
    dof rx ry rz
    limits (-20.0 45.0)
           (-30.0 30.0)
           (-30.0 30.0)
  end
  begin
     id 16
     name head
     direction -0.0182665 0.99536 -0.0944669  
     length 1.86026  
     axis 0 0 0   XYZ
    dof rx ry rz
    limits (-20.0 45.0)
           (-30.0 30.0)
           (-30.0 30.0)
  end
  begin
     id 17 
     name lclavicle
     direction 0.924239 0.361045 0.124212  
     length 3.26878  
     axis 0 0 0   XYZ
    dof ry rz
    limits (-20.0 10.0)
           (0.0 20.0)
  end
  begin
     id 18 
     name lhumerus
     direction 1 -4.48968e-011 -2.56583e-027   
     length 4.58538   
     axis 180 -30 -90   XYZ
    dof rx ry rz
    limits (-60.0 90.0)
           (-90.0 90.0)
           (-90.0 90.0)
  end
  begin
     id 19
     name lradius
     direction 1 -4.4898e-011 -5.50375e-027   
     length 2.68935   
     axis 180 -30 -90   XYZ
    dof rx
    limits (-10.0 170.0)
  end
  begin
     id 20
     name lwrist
     direction 1 -4.48939e-011 -1.48955e-026   
     length 1.34468   
     axis 9.0955e-015 90 90   XYZ
    dof ry
    limits (-180.0 0.0)
 end
  begin
     id 21 
     name lhand
     direction 1 -4.48936e-011 -2.97907e-026   
     length 0.585058   
     axis 1.90115e-014 90 90   XYZ
    dof rx rz
    limits (-90.0 90.0)
           (-45.0 45.0)
  end
  begin
     id 22 
     name lfingers
     direction 1 -4.49082e-011 -5.96235e-026   
     length 0.471689   
     axis 3.80223e-014 90 90   XYZ
    dof rx
    limits (0.0 90.0)
  end
  begin
     id 23
     name lthumb
     direction 0.707107 -6.3489e-011 0.707107   
     length 0.677253   
     axis -90 45 -3.84942e-014   XYZ
    dof rx rz
    limits (-45.0 45.0)
           (-45.0 45.0)
  end
  begin
     id 24 
     name rclavicle
     direction -0.923098 0.371783 0.0983239   
     length 3.19656  
     axis 0 0 0   XYZ 
    dof ry rz
    limits (-10.0 20.0)
           (-20.0 0.0)
  end
  begin
     id 25 
     name rhumerus
     direction -1 -4.48976e-011 -2.5492e-027  
     length 4.4745   
     axis 180 30 90   XYZ
    dof rx ry rz
    limits (-90.0 60.0)
           (-90.0 90.0)
           (-90.0 90.0)
  end
  begin
     id 26 
     name rradius
     direction -1 -4.48941e-011 -4.36555e-027   
     length 2.93896   
     axis 180 30 90   XYZ
    dof rx
    limits (-10.0 170.0)
  end
  begin
     id 27 
     name rwrist
     direction -1 -4.49044e-011 -1.49032e-026   
     length 1.46948   
     axis 9.0955e-015 -90 -90   XYZ
    dof ry
    limits (-180.0 0.0)
  end
  begin
     id 28
     name rhand
     direction -1 -4.48826e-011 -2.97749e-026   
     length 0.405092   
     axis 1.90115e-014 -90 -90   XYZ
    dof rx rz
    limits (-90.0 90.0)
           (-45.0 45.0)
  end
  begin
     id 29
     name rfingers
     direction -1 -4.49209e-011 -5.96602e-026   
     length 0.326596   
     axis 3.80223e-014 -90 -90   XYZ
    dof rx
    limits (0.0 90.0)
  end
  begin
     id 30
     name rthumb
     direction -0.707107 -6.34776e-011 0.707107   
     length 0.468928   
     axis -90 -45 3.84942e-014   XYZ
    dof rx rz
    limits (-45.0 45.0)
           (-45.0 45.0)
  end
:hierarchy
  begin
    root lhipjoint rhipjoint lowerback
    lhipjoint lfemur
    lfemur ltibia
    ltibia lfoot
    lfoot ltoes
    rhipjoint rfemur
    rfemur rtibia
    rtibia rfoot
    rfoot rtoes
    lowerback upperback
    upperback thorax
    thorax lowerneck lclavicle rclavicle
    lowerneck upperneck
    upperneck head
    lclavicle lhumerus
    lhumerus lradius
    lradius lwrist
    lwrist lhand lthumb
    lhand lfingers
    rclavicle rhumerus
    rhumerus rradius
    rradius rwrist
    rwrist rhand rthumb
    rhand rfingers
  end

#!OML:ASF H:\Punching\Project 1\Capture day 1\Session 1\female.ASF
:FULLY-SPECIFIED
:DEGREES
122
root 0.368875 15.5912 4.3981 9.17773 4.46198 -0.516716
lowerback -0.648602 -1.5785 1.45395
upperback -5.04073 -2.06008 0.494935
thorax -4.87052 -1.07592 -0.226921
lowerneck -6.57113 3.10183 11.0931
upperneck 29.2366 4.64497 -7.61196
head 10.9075 2.50033 -4.18072
rclavicle 7.84112e-015 1.07344e-014
rhumerus 0.602739 13.1457 -77.2119
rradius 129.341
rwrist -37.0414
rhand -19.7222 -5.2806
rfingers 7.12502
rthumb 6.60798 -35.1575
lclavicle 7.84112e-015 1.07344e-014
lhumerus 0.793949 -19.8011 76.0866
lradius 137.025
lwrist 9.48024
lhand -20.6537 10.2078
lfingers 7.12502
lthumb 5.70866 40.1109
rfemur -28.2658 16.5234 0.603555
rtibia 19.9649
rfoot -18.1069 -26.0684
rtoes -4.23287
lfemur -11.6054 -10.4303 -18.5214
ltibia 26.2601
lfoot -20.7668 8.10332
ltoes -2.37187
123
root 0.316218 15.5795 4.43791 9.2037 5.06978 -0.47311
lowerback -0.572567 -1.56966 1.44951
upperback -5.04625 -2.04903 0.429143
thorax -4.92173 -1.07174 -0.290292
lowerneck -6.6279 3.00778 10.9099
upperneck 29.0607 4.50228 -7.50256
head 10.8272 2.42534 -4.11834
rclavicle 2.09951e-014 -6.65929e-015
rhumerus 1.20886 13.7277 -77.1807
rradius 130.133
rwrist -37.1246
rhand -19.8855 -4.87544
rfingers 7.12502
rthumb 6.45034 -34.7572
lclavicle 2.09951e-014 -6.65929e-015
lhumerus 1.5426 -20.7417 76.0165
lradius 137.483
lwrist 9.42751
lhand -21.166 9.7835
lfingers 7.12502
lthumb 5.21402 39.6994
rfemur -28.0502 16.7381 0.544467
rtibia 19.676
rfoot -18.253 -26.6775
rtoes -3.73691
lfemur -11.7539 -10.6327 -18.2702
ltibia 26.5675
lfoot -20.9306 7.78861
ltoes -2.80314
124
root 0.26097 15.5679 4.47787 9.2492 5.65779 -0.42011
lowerback -0.50322 -1.54427 1.44674
upperback -5.05649 -2.0166 0.347492
thorax -4.97432 -1.05742 -0.371982
lowerneck -6.71413 2.90837 10.7149
upperneck 28.9079 4.34592 -7.36988
head 10.7601 2.34517 -4.04746
rclavicle 6.51952e-015 1.49089e-016
rhumerus 1.77432 14.317 -77.1553
rradius 130.858
rwrist -37.1684
rhand -20.0837 -4.55147
rfingers 7.12502
rthumb 6.25896 -34.439
lclavicle 6.51952e-015 1.49089e-016
lhumerus 2.24019 -21.6256 75.9467
lradius 137.876
lwrist 9.37264
lhand -21.5439 9.36417
lfingers 7.12502
lthumb 4.84915 39.2887
rfemur -27.8246 16.7013 0.604189
rtibia 19.4961
rfoot -18.2092 -27.0005
rtoes -3.25174
lfemur -11.9295 -10.834 -18.0164
ltibia 26.8826
lfoot -21.0893 7.49972
ltoes -3.24835
125
root 0.203168 15.556 4.51804 9.31678 6.23 -0.351513
lowerback -0.443533 -1.50628 1.43731
upperback -5.06878 -1.96822 0.25285
thorax -5.0234 -1.03522 -0.464392
lowerneck -6.82771 2.80336 10.5054
upperneck 28.7671 4.17862 -7.22354
head 10.7021 2.25965 -3.97062
rclavicle 1.21973e-014 1.45113e-014
rhumerus 2.31278 14.9174 -77.1289
rradius 131.525
rwrist -37.1682
rhand -20.3182 -4.33755
rfingers 7.12502
rthumb 6.03258 -34.2317
lclavicle 1.21973e-014 1.45113e-014
lhumerus 2.88821 -22.4432 75.8834
lradius 138.215
lwrist 9.34338
lhand -21.7869 8.96055
lfingers 7.12502
lthumb 4.61452 38.8903
rfemur -27.594 16.445 0.759111
rtibia 19.4128
rfoot -17.9785 -27.0637
rtoes -2.83637
lfemur -12.1306 -11.0346 -17.7648
ltibia 27.1962
lfoot -21.24 7.2279
ltoes -3.69516
126
root 0.142933 15.544 4.55862 9.40528 6.78948 -0.263372
lowerback -0.392757 -1.45743 1.41998
upperback -5.08536 -1.90632 0.143649
thorax -5.07171 -1.00636 -0.568315
lowerneck -6.94713 2.69084 10.2862
upperneck 28.6242 4.00032 -7.06973
head 10.6439 2.16885 -3.89075
rclavicle -3.89804e-015 1.42504e-014
rhumerus 2.81848 15.5311 -77.1046
rradius 132.139
rwrist -37.1021
rhand -20.6212 -4.22281
rfingers 7.12502
rthumb 5.74005 -34.1251
lclavicle -3.89804e-015 1.42504e-014
lhumerus 3.46143 -23.205 75.832
lradius 138.521
lwrist 9.35556
lhand -21.9118 8.58713
lfingers 7.12502
lthumb 4.49397 38.5195
rfemur -27.3672 16.0271 0.97839
rtibia 19.4143
rfoot -17.575 -26.9288
rtoes -2.6035
lfemur -12.3465 -11.2384 -17.5193
ltibia 27.4935
lfoot -21.3791 6.96741
ltoes -4.12622
127
root 0.0804074 15.5326 4.6 9.50942 7.34406 -0.157996
lowerback -0.350706 -1.40156 1.39788
upperback -5.10388 -1.83593 0.020775
thorax -5.11703 -0.973433 -0.684449
lowerneck -7.0818 2.57554 10.0547
upperneck 28.4883 3.81731 -6.90657
head 10.5915 2.07555 -3.80621
rclavicle 3.4503e-014 4.11857e-015
rhumerus 3.29498 16.1337 -77.0895
rradius 132.69
rwrist -36.9899
rhand -20.9048 -4.16518
rfingers 7.12502
rthumb 5.46626 -34.0747
lclavicle 3.4503e-014 4.11857e-015
lhumerus 3.95995 -23.9175 75.7875
lradius 138.805
lwrist 9.41228
lhand -21.9608 8.27548
lfingers 7.12502
lthumb 4.44664 38.2088
rfemur -27.1622 15.5328 1.22497
rtibia 19.4917
rfoot -16.9964 -26.6863
rtoes -2.71108
lfemur -12.5574 -11.4482 -17.2776
ltibia 27.749
lfoot -21.4967 6.71159
ltoes -4.54024
128
root 0.0156674 15.523 4.64219 9.62452 7.90183 -0.040012
lowerback -0.313431 -1.34037 1.37651
upperback -5.12197 -1.75912 -0.114744
thorax -5.15923 -0.937676 -0.814652
lowerneck -7.21476 2.45702 9.81655
upperneck 28.3383 3.63002 -6.7381
head 10.5338 1.98016 -3.71898
rclavicle 2.71621e-015 -7.00716e-015
rhumerus 3.74337 16.7019 -77.087
rradius 133.166
rwrist -36.8492
rhand -21.1214 -4.08977
rfingers 7.12502
rthumb 5.25717 -34.0046
lclavicle 2.71621e-015 -7.00716e-015
lhumerus 4.39214 -24.5932 75.7419
lradius 139.073
lwrist 9.50909
lhand -21.9714 8.06618
lfingers 7.12502
lthumb 4.43643 37.9997
rfemur -27.0099 15.0445 1.45683
rtibia 19.6372
rfoot -16.2453 -26.4249
rtoes -3.23749
lfemur -12.7446 -11.6692 -17.0342
ltibia 27.931
lfoot -21.5755 6.45659
ltoes -4.93892
129
root -0.0509495 15.5163 4.68513 9.74446 8.47685 0.0911947
lowerback -0.27365 -1.27719 1.36165
upperback -5.13824 -1.68015 -0.264476
thorax -5.20129 -0.901512 -0.963442
lowerneck -7.35312 2.33797 9.56055
upperneck 28.1781 3.44048 -6.55171
head 10.4737 1.88376 -3.62236
rclavicle -2.02426e-014 2.48481e-016
rhumerus 4.15642 17.2226 -77.1021
rradius 133.567
rwrist -36.6774
rhand -21.2323 -4.02049
rfingers 7.12502
rthumb 5.15003 -33.9379
lclavicle -2.02426e-014 2.48481e-016
lhumerus 4.76477 -25.2418 75.6898
lradius 139.324
lwrist 9.63584
lhand -21.9781 7.96488
lfingers 7.12502
lthumb 4.42991 37.8985
rfemur -26.9231 14.5976 1.64555
rtibia 19.8428
rfoot -15.3651 -26.1742
rtoes -4.17852
lfemur -12.8901 -11.9078 -16.7916
ltibia 28.0124
lfoot -21.5978 6.19889
ltoes -5.33282
